<?xml version="1.0" standalone="no"?>
<!DOCTYPE svg PUBLIC "-//W3C//DTD SVG 20010904//EN"
 "http://www.w3.org/TR/2001/REC-SVG-20010904/DTD/svg10.dtd">
<svg version="1.0" xmlns="http://www.w3.org/2000/svg"
 width="260.000000pt" height="260.000000pt" viewBox="0 0 260.000000 260.000000"
 preserveAspectRatio="xMidYMid meet">
<metadata>
Created by potrace 1.14, written by Peter Selinger 2001-2017
</metadata>
<g transform="translate(0.000000,260.000000) scale(0.100000,-0.100000)"
fill="#000000" stroke="none">
<path d="M956 2562 c-4 -3 -23 -7 -42 -9 -20 -1 -42 -7 -50 -14 -8 -6 -14 -8
-14 -5 0 7 -8 2 -54 -39 -16 -14 -26 -25 -22 -25 3 0 -3 -9 -14 -20 -11 -11
-20 -27 -20 -35 0 -8 -4 -15 -8 -15 -11 0 -12 -7 -17 -94 -2 -37 0 -76 4 -85
5 -9 14 -28 21 -43 7 -14 26 -41 43 -60 17 -18 30 -36 29 -41 -1 -4 1 -7 5 -6
17 2 53 -14 48 -21 -4 -7 14 -19 40 -26 6 -1 31 -12 58 -24 26 -11 52 -18 57
-15 6 3 10 1 10 -5 0 -6 4 -9 9 -5 5 3 12 1 15 -3 3 -5 17 -8 31 -7 14 2 25 0
25 -4 0 -4 19 -7 43 -8 88 -2 84 0 83 -40 -1 -30 -5 -38 -21 -40 -11 -1 -45
-4 -75 -7 -30 -3 -62 -6 -70 -7 -8 0 -44 -8 -80 -16 -85 -21 -112 -21 -128 -3
-10 11 -11 11 -6 1 4 -7 -17 5 -45 28 -29 22 -59 41 -67 41 -8 0 -14 5 -14 10
0 6 -9 10 -20 10 -11 0 -20 4 -20 9 0 4 -14 7 -31 5 -16 -2 -28 0 -25 4 6 11
-76 9 -93 -2 -10 -6 -12 -5 -7 2 8 13 -6 17 -18 5 -6 -7 -29 -13 -53 -15 -7
-1 -13 -5 -13 -9 0 -4 -7 -10 -16 -13 -10 -4 -13 -2 -8 7 4 6 -4 2 -18 -10
-13 -13 -29 -23 -35 -23 -15 0 -84 -83 -104 -126 -12 -23 -13 -34 -5 -38 7 -3
7 -5 -1 -5 -7 -1 -13 -8 -13 -16 0 -8 -6 -15 -12 -15 -8 0 -9 -3 -3 -8 11 -8
13 -37 3 -48 -4 -3 -3 -15 3 -25 7 -14 6 -19 -2 -19 -8 0 -8 -4 -2 -12 10 -12
13 -28 14 -70 0 -10 4 -18 8 -18 9 0 11 -14 13 -83 1 -27 -3 -52 -8 -55 -9 -7
-15 -24 -17 -54 -1 -10 -5 -18 -9 -18 -4 0 -5 -7 -2 -15 4 -8 2 -15 -3 -15 -5
0 -10 -10 -11 -22 -3 -48 -11 -80 -24 -95 -10 -13 -10 -15 0 -9 10 6 11 2 7
-16 -11 -42 -13 -62 -14 -101 -1 -28 -4 -36 -13 -31 -10 6 -10 4 -1 -7 7 -7
13 -20 13 -29 0 -11 -2 -12 -8 -2 -6 8 -9 2 -9 -18 0 -16 5 -30 11 -30 6 0 4
-5 -4 -10 -12 -8 -12 -10 5 -11 11 0 15 -3 8 -5 -7 -3 -9 -14 -4 -32 5 -15 7
-35 5 -44 -1 -10 2 -18 7 -18 6 0 9 -6 7 -12 -5 -22 25 -128 35 -128 6 0 7 -3
4 -7 -4 -3 1 -15 10 -26 10 -11 12 -17 5 -13 -11 7 -11 4 0 -13 7 -12 15 -21
19 -21 3 0 6 -6 6 -13 0 -15 62 -110 75 -115 4 -2 8 -8 8 -13 0 -19 144 -151
154 -142 3 4 6 2 6 -4 0 -11 90 -69 102 -66 3 2 12 -4 18 -12 7 -8 16 -15 20
-15 4 0 25 -8 46 -17 22 -9 44 -18 49 -19 6 -1 29 -9 53 -18 23 -8 44 -15 47
-16 3 0 6 0 8 -1 19 -6 47 -10 70 -11 15 -1 27 -4 27 -7 0 -4 10 -8 23 -9 38
-4 56 -8 62 -14 4 -3 20 -2 36 2 16 5 27 5 25 1 -3 -5 14 -8 37 -8 124 -1 148
-3 142 -15 -4 -7 -1 -6 7 2 10 11 35 15 98 15 47 -1 91 3 98 8 8 6 12 5 12 -4
0 -9 3 -10 8 -4 4 6 16 11 27 11 11 1 36 5 55 9 19 4 43 7 53 7 9 0 15 3 13 7
-3 4 5 7 17 6 12 -1 27 1 32 5 11 9 76 25 88 22 4 -1 7 3 7 9 0 6 7 9 15 5 8
-3 15 0 15 6 0 6 3 9 6 5 4 -3 13 0 21 8 8 8 23 15 34 15 10 0 19 4 19 9 0 5
14 12 30 16 17 4 30 11 30 16 0 5 7 9 15 9 8 0 15 5 15 10 0 6 7 10 15 10 8 0
15 5 15 10 0 6 7 10 15 10 7 0 19 8 24 18 6 9 11 14 11 10 0 -9 130 118 130
128 0 4 10 15 22 25 11 11 18 19 14 19 -4 0 -1 7 6 15 36 40 70 103 62 116 -3
5 -1 9 4 9 9 0 21 26 27 55 1 6 5 18 9 27 4 9 8 22 10 30 1 7 4 18 7 23 4 6 5
20 4 32 -1 15 4 23 14 24 9 0 11 3 4 5 -7 3 -9 17 -6 37 3 18 6 46 7 62 0 17
5 33 11 37 6 5 5 8 -2 8 -7 0 -13 5 -13 11 0 5 4 8 8 5 5 -3 9 1 9 9 0 8 -4
12 -8 9 -5 -2 -8 15 -7 38 0 24 -3 68 -7 98 -4 30 -9 62 -10 70 -2 14 -13 64
-20 85 -1 6 -3 15 -5 20 -1 6 -6 16 -12 23 -6 6 -8 12 -5 12 4 0 -2 20 -13 44
-10 24 -16 47 -13 50 4 3 1 6 -7 6 -8 0 -9 4 -4 13 5 6 9 24 8 40 0 15 2 27 7
27 4 0 6 11 4 25 -1 14 2 28 7 31 4 3 6 9 3 14 -3 5 -1 20 5 34 5 14 6 26 2
26 -4 0 -7 11 -7 25 0 14 5 25 10 25 6 0 5 4 -2 8 -7 4 -13 22 -15 40 -1 18
-6 32 -11 32 -4 0 -7 6 -5 13 1 6 -6 26 -17 42 -23 36 -107 119 -126 123 -8 2
-29 11 -48 20 -19 9 -45 15 -59 14 -13 -1 -33 3 -44 9 -15 8 -19 8 -14 0 4 -6
2 -11 -3 -11 -6 0 -11 6 -11 13 0 9 -2 9 -8 0 -4 -7 -24 -13 -45 -15 -20 -1
-37 -6 -37 -10 0 -4 -3 -7 -7 -6 -16 3 -63 -15 -63 -24 0 -5 -4 -7 -8 -4 -8 5
-46 -22 -92 -64 -9 -8 -21 -16 -26 -16 -5 -1 -20 -5 -33 -9 -18 -6 -22 -4 -16
6 6 11 5 11 -5 2 -8 -8 -21 -8 -44 -1 -17 5 -42 11 -56 13 -14 2 -43 6 -65 9
-22 4 -64 7 -93 7 -42 1 -52 4 -48 16 4 8 1 11 -5 7 -7 -4 -9 4 -7 22 3 25 7
29 38 31 88 3 130 9 130 16 0 5 4 6 8 3 5 -3 20 1 33 8 14 7 33 12 42 10 9 -1
17 1 17 5 0 4 18 15 39 24 22 10 56 33 77 52 21 19 42 35 48 35 5 0 7 3 4 6
-4 3 2 14 13 25 10 10 19 26 19 34 0 8 5 15 11 15 5 0 7 5 4 10 -3 6 -1 10 4
10 6 0 11 10 11 23 0 13 5 28 12 35 9 9 9 12 -1 12 -11 0 -11 3 -1 15 10 12
10 15 -1 15 -9 0 -10 3 -4 8 13 9 17 32 6 32 -5 0 -8 8 -7 18 2 9 -3 27 -11
39 -8 12 -14 26 -14 30 0 4 -9 18 -19 31 -11 12 -20 25 -20 28 0 10 -44 43
-57 44 -7 0 -13 4 -13 9 0 21 -125 36 -149 17 -12 -8 -13 -8 -7 2 6 10 4 11
-10 4 -11 -5 -31 -15 -45 -22 -14 -6 -39 -23 -54 -36 -15 -13 -33 -24 -38 -24
-6 0 -8 -3 -5 -6 3 -3 -9 -22 -28 -42 -19 -20 -34 -43 -34 -49 0 -7 -4 -13 -9
-13 -5 0 -12 -13 -16 -30 -4 -16 -11 -30 -16 -30 -6 0 -7 -4 -4 -10 3 -5 -1
-10 -9 -10 -9 0 -16 8 -16 17 0 19 -80 143 -92 143 -4 0 -21 13 -36 30 -16 16
-32 27 -35 23 -4 -3 -7 -1 -7 5 0 5 -21 18 -47 27 -27 9 -55 21 -64 25 -9 5
-20 6 -23 2z"/>
</g>
</svg>
