<?xml version="1.0" standalone="no"?>
<!DOCTYPE svg PUBLIC "-//W3C//DTD SVG 20010904//EN"
 "http://www.w3.org/TR/2001/REC-SVG-20010904/DTD/svg10.dtd">
<svg version="1.0" xmlns="http://www.w3.org/2000/svg"
 width="100.000000pt" height="100.000000pt" viewBox="0 0 100.000000 100.000000"
 preserveAspectRatio="xMidYMid meet">
<metadata>
Created by potrace 1.14, written by Peter Selinger 2001-2017
</metadata>
<g transform="translate(0.000000,100.000000) scale(0.100000,-0.100000)"
fill="#000000" stroke="none">
<path d="M595 982 c-33 -11 -61 -35 -83 -70 l-20 -34 -17 29 c-35 60 -116 91
-156 60 -94 -73 -27 -198 116 -215 32 -3 42 -8 41 -20 -2 -11 -13 -17 -32 -18
-16 0 -46 -4 -66 -8 -28 -5 -46 -1 -83 19 -56 29 -84 31 -128 9 -68 -36 -84
-79 -64 -179 2 -10 -3 -40 -10 -65 -31 -101 -21 -228 25 -302 53 -85 167 -152
282 -165 263 -29 442 53 509 233 22 59 21 178 -3 242 -10 29 -14 62 -10 105 4
52 2 68 -16 95 -40 64 -125 75 -199 27 -21 -14 -44 -23 -52 -21 -8 3 -33 7
-56 10 -70 7 -84 30 -21 34 52 4 118 43 141 83 29 50 16 104 -32 136 -36 25
-36 24 -66 15z"/>
</g>
</svg>
