<?xml version="1.0" standalone="no"?>
<!DOCTYPE svg PUBLIC "-//W3C//DTD SVG 20010904//EN"
 "http://www.w3.org/TR/2001/REC-SVG-20010904/DTD/svg10.dtd">
<svg version="1.0" xmlns="http://www.w3.org/2000/svg"
 width="210.000000pt" height="210.000000pt" viewBox="0 0 210.000000 210.000000"
 preserveAspectRatio="xMidYMid meet">
<metadata>
Created by potrace 1.14, written by Peter Selinger 2001-2017
</metadata>
<g transform="translate(0.000000,210.000000) scale(0.100000,-0.100000)"
fill="#000000" stroke="none">
<path d="M775 1918 c-63 -14 -122 -81 -127 -145 -6 -64 11 -110 56 -156 60
-62 160 -103 269 -109 34 -2 38 -5 35 -27 -3 -24 -8 -26 -98 -39 -152 -22
-151 -22 -196 9 -69 47 -119 62 -180 56 -93 -10 -174 -72 -202 -153 -12 -37
-8 -137 7 -178 9 -23 7 -46 -14 -122 -32 -116 -39 -168 -37 -271 1 -120 33
-217 103 -313 131 -180 351 -271 658 -271 209 -1 356 37 496 127 177 113 266
283 266 505 0 74 -7 120 -36 239 -2 8 -9 29 -16 47 -10 23 -10 45 -2 90 27
150 -13 246 -126 299 -71 34 -206 11 -266 -46 -31 -29 -65 -38 -102 -28 -18 5
-68 12 -111 16 -78 7 -80 8 -73 50 0 4 16 7 34 7 38 -1 130 21 169 41 155 80
187 256 65 354 -39 31 -126 37 -166 12 -49 -30 -93 -77 -118 -126 l-25 -50
-24 40 c-65 110 -150 161 -239 142z"/>
</g>
</svg>
